<svg width="250" height="250" viewBox="0 0 250 250" fill="none" xmlns="http://www.w3.org/2000/svg">
<path d="M114.526 177.837C113.397 178.215 109.386 178.141 98.5801 179.271C98.2885 179.224 97.9952 179.191 97.7051 179.138C97.6029 179.119 97.4972 179.14 97.4105 179.198C97.3238 179.255 97.2628 179.344 97.2404 179.446C96.5016 182.872 97.149 186.893 98.8526 189.454C102.535 194.989 110.521 194.872 113.478 187.21C114.561 184.401 114.933 180.777 115.053 178.236C115.056 178.17 115.043 178.105 115.016 178.046C114.988 177.987 114.946 177.936 114.894 177.896C114.842 177.857 114.781 177.831 114.716 177.82C114.652 177.81 114.588 177.816 114.526 177.837ZM112.731 186.923C111.641 189.744 109.585 191.774 107.228 192.356C104.503 193.026 101.258 191.619 99.5192 189.008C98.016 186.748 97.3878 183.095 97.9471 179.995C103.295 180.922 108.768 180.515 114.22 178.777C114.075 181.212 113.696 184.417 112.729 186.922L112.731 186.923ZM83.8942 117.641C83.4103 117.854 83.734 118.588 84.2196 118.373C85.758 117.692 87.5449 117.678 89.1555 118.188C89.0817 118.212 89.0064 118.236 88.9567 118.3C88.4428 118.961 88.0737 119.723 87.8733 120.537C87.6728 121.35 87.6456 122.196 87.7933 123.021C87.8894 123.542 88.6795 123.394 88.5817 122.873C88.454 122.161 88.4772 121.43 88.6501 120.728C88.8229 120.025 89.1414 119.367 89.5849 118.795C89.7019 118.648 89.6731 118.457 89.5641 118.314C90.6324 118.712 91.5832 119.372 92.3285 120.234C92.6619 120.632 93.2853 120.122 92.9391 119.716C90.8077 117.197 86.9231 116.301 83.8942 117.641ZM124.168 112.385C125.611 113.433 126.904 113.537 128.468 114.132C128.966 114.324 129.244 113.571 128.753 113.383C127.188 112.787 125.936 112.68 124.639 111.736C122.764 110.382 123.49 108.76 123.902 106.447C124.954 100.531 124.926 101.393 125.989 95.4232C126.082 94.9007 125.293 94.7613 125.2 95.2821C125.019 96.2934 123.034 106.729 122.925 107.244C122.55 109.058 122.159 110.933 124.168 112.385ZM139.995 104.247C141.184 104.317 142.045 103.481 141.067 102.399C140.224 101.465 139.269 100.979 138.372 100.439C137.375 99.8414 136.255 99.1924 135.135 99.7565C134.295 100.178 133.986 100.995 134.861 101.91C135.952 103.055 138.425 104.154 139.995 104.247ZM116.343 99.9136C120.75 99.7693 121.611 97.0978 116.479 96.7597C115.111 96.6684 113.535 96.3238 112.633 97.4937C112.343 97.8719 112.188 98.3991 112.389 98.8302C112.87 99.8591 115.189 99.952 116.343 99.9136ZM137.157 106.317C135.78 106.258 134.582 108.151 134.481 110.545C134.378 112.938 135.41 114.925 136.788 114.984C138.163 115.043 139.362 113.149 139.465 110.757C139.566 108.364 138.532 106.375 137.157 106.317ZM115.899 103.896C114.524 103.837 113.325 105.729 113.223 108.123C113.122 110.516 114.154 112.505 115.53 112.563C116.907 112.62 118.104 110.729 118.207 108.335C118.309 105.942 117.277 103.955 115.899 103.896ZM90.2837 211.125C89.6086 214.064 89.4031 217.091 89.6747 220.095C89.7244 220.63 90.5241 220.548 90.4744 220.023C90.2096 217.104 90.4092 214.161 91.0657 211.305C91.1811 210.79 90.4071 210.606 90.2837 211.125ZM123.293 124.511C123.213 125.04 124.008 125.154 124.087 124.633C124.225 123.815 124.574 123.048 125.1 122.406C125.627 121.765 126.311 121.273 127.087 120.978C128.83 120.341 131.845 120.547 133.55 122.069C133.941 122.423 134.479 121.824 134.082 121.471C132.157 119.752 128.825 119.49 126.811 120.224C125.898 120.565 125.092 121.14 124.474 121.893C123.856 122.646 123.449 123.55 123.293 124.511ZM162.686 59.3847C162.954 59.3174 161.833 60.295 174.527 48.8334C174.875 48.5195 175.146 48.1309 175.322 47.6968C175.497 47.2627 175.572 46.7946 175.54 46.3274C175.508 45.8603 175.371 45.4065 175.139 45C174.907 44.5936 174.585 44.2451 174.199 43.9809L173.016 43.1668C171.596 42.1876 169.612 42.5177 168.691 43.9712C166.405 47.5738 164.526 51.5289 162.213 55.2052C161.588 56.194 160.34 57.3815 161.226 58.593C161.438 58.8831 162.197 59.4905 162.686 59.3847ZM157.946 66.2229C159.489 65.7132 160.365 64.1636 159.905 62.7565C159.444 61.3462 157.816 60.6187 156.271 61.1267C154.728 61.6363 153.846 63.1876 154.309 64.593C154.771 66.0001 156.401 66.7309 157.946 66.2229Z" fill="#414141"/>
<path d="M22.2356 116.275C22.2356 126.591 29.8494 135.442 39.992 137.025V147.605C39.992 157.053 47.6843 164.737 57.1394 164.737H84.6987C73.5882 176.2 74.7564 190.617 72.9936 202.658C72.3862 206.719 70.5257 218.519 73.8285 220.928C74.875 221.684 75.0978 221.687 88.9215 222.716C102.617 223.734 126.893 224.921 139.795 224.992C141.276 225.662 142.8 225.711 144.439 225.746C153.125 225.936 161.912 225.878 170.776 225.57C173.912 225.464 178.264 224.947 179.84 221.692C180.946 219.413 180.489 216.692 180.393 214.4C180.175 208.904 180.54 210.855 179.899 201.195C179.101 189.149 179.59 193.381 179.514 173.961C179.503 170.932 179.503 167.833 179.521 164.737C188.231 164.708 186.577 164.774 186.893 164.705C188.271 172.862 190.01 179.854 194.848 188.23C196.021 190.248 196.87 190.932 200.168 190.57C209.479 189.529 218.726 187.766 227.764 185.298C221.662 177.966 218.861 168.652 216.869 159.218C216.954 159.198 217.042 159.179 217.099 159.107C220.694 154.646 221.55 148.418 222.01 142.783C224.824 109.011 224.881 78.301 225.106 47.3667C225.186 32.6119 221.332 24.4612 206.402 24.1455H50.7612C44.8237 24.1455 39.992 28.9692 39.992 34.8987L39.9984 52.7961C35.6042 52.9644 30.524 53.0221 26.4808 54.7336C23.5865 55.9596 23.7356 60.2913 23.6234 62.7673C23.3335 69.1467 23.5264 75.5388 24.2003 81.8891C24.4888 84.6038 25.1186 86.966 31.2788 87.5622C34.1859 87.8442 37.0897 87.8346 39.992 87.7192V95.5109C29.8478 97.0974 22.2356 105.953 22.2356 116.275ZM23.0369 116.275C23.0369 106.232 30.5208 97.6183 40.4535 96.2385C52.234 94.4484 63.5192 103.745 63.5192 116.275C63.5192 127.428 54.4391 136.5 43.2772 136.5C32.0112 136.5 23.0369 127.272 23.0369 116.275ZM88.9824 221.916C75.4648 220.912 75.1234 220.875 74.2997 220.279C71.4247 218.186 73.2853 206.133 73.7853 202.775C74.9359 194.918 74.9167 186.152 77.391 178.678C80.1266 170.4 85.1875 163.908 91.6426 160.392C98.2965 156.761 106.369 156.333 113.497 155.953C116.237 155.812 119.072 155.671 121.865 155.682C129.04 155.714 142.75 156.654 149.667 158.679C140.261 200.115 142.3 189.972 138.058 218.107C137.726 220.298 136.761 222.559 138.506 224.168C128.756 224.069 107.548 223.298 88.9808 221.916H88.9824ZM98.0112 112.301C96.7484 118.179 96.9375 124.189 99.0529 129.666C99.0337 129.681 99.008 129.674 98.9888 129.692C95.3446 133.291 89.992 133.907 85.351 131.264C80.8125 128.692 78.3381 122.924 79.5962 117.846C80.851 112.782 85.7324 108.833 90.9503 108.663C93.5385 108.577 96.8269 109.686 98.0112 112.301ZM99.0529 111.219C99.0658 111.167 99.0676 111.112 99.0582 111.059C99.0488 111.006 99.0285 110.955 98.9984 110.91C99.5048 108.206 100.147 105.604 101.53 103.15C104.351 98.1343 109.159 94.5606 114.431 93.6792C120.326 92.6973 126.327 92.5301 132.268 93.1824C137.292 93.7401 141.684 94.8298 145.63 97.9212C145.28 98.0654 145.317 98.458 145.559 98.6103C155.208 104.7 156.194 121.245 150.628 131.969C148.003 137.027 143.321 140.948 137.776 142.732C134.705 143.718 131.825 143.745 131.986 143.727L131.97 143.732C128.548 143.868 131.109 143.543 126.681 143.815C122.333 144.086 121.663 143.674 117.462 143.299C104.689 142.162 94.6507 128.966 99.0529 111.219ZM149.843 157.9C144.837 156.439 137.447 155.718 132.224 155.323L132.373 144.5C140.554 144.048 147.803 139.275 151.428 132.144C152.553 133.334 153.898 134.293 155.389 134.969C151.824 149.162 152.71 145.264 149.843 157.9ZM155.587 134.176C154.144 133.506 152.853 132.549 151.792 131.365C154.112 126.421 155.133 120.452 154.683 114.788C154.736 114.776 154.785 114.752 154.829 114.719C154.872 114.686 154.907 114.644 154.933 114.596C155.793 112.862 157.627 111.727 159.995 111.42C159.152 119.049 157.393 126.846 155.587 134.176ZM117.218 144.075C122.486 144.589 122.522 144.876 126.729 144.617C130.135 144.408 128.96 144.599 131.572 144.533L131.423 155.272C124.888 154.812 120.949 154.83 117.157 154.984L117.218 144.075ZM179.51 210.625C179.583 217.259 180.21 219.089 179.117 221.343C177.731 224.21 173.676 224.673 170.747 224.772C161.928 225.077 153.082 225.136 144.455 224.947C143.125 224.918 141.617 224.883 140.288 224.352C137.277 223.105 138.415 221.105 138.848 218.227C143.236 189.115 140.72 201.817 152.064 151.735C155.253 137.761 159.865 123.28 161.079 108.665C161.582 102.533 159.925 96.6727 159.925 90.6679C159.925 86.6455 160.976 86.2016 160.726 85.6776C161.542 83.926 162.537 82.6872 163.582 81.3314C165.29 82.4163 167.109 83.5445 169.115 84.7609C168.777 85.4436 167.913 86.6086 167.764 88.6519C167.47 92.6647 171.066 95.8763 175.037 95.1151C177.324 94.6583 179.372 92.8138 180.378 90.3026C181.131 88.4115 181.34 86.2032 181.013 83.5526C181.011 83.5365 181.04 83.6792 180.752 82.8394C180.603 82.5269 180.486 81.6183 178.353 78.3266C178.038 77.8442 177.728 77.3602 177.43 76.8715C176.696 75.6663 175.138 72.6038 176.534 70.2032C177.409 68.6984 179.388 67.8619 181.264 68.2128C183.045 68.5494 184.362 69.4933 185.53 71.2737C185.538 71.2881 185.556 71.2865 185.564 71.2978C185.575 71.3138 185.571 71.333 185.583 71.3458C189.05 74.926 190.862 82.4564 188.292 89.5894C185.731 92.5638 182.708 98.4708 177.035 101.42C176.567 101.663 176.931 102.376 177.404 102.129C181.385 100.062 184.22 96.5381 186.691 93.0381C188.849 90.1006 191.854 85.7016 194.938 87.9227C195.994 88.684 196.575 90.1824 196.421 91.7401C196.037 95.6327 190.16 103.416 181.261 106.254C180.761 106.415 180.995 107.176 181.506 107.019C187.109 105.23 192.351 101.309 195.649 95.9484C196.369 95.4404 197.2 95.0798 198.074 94.9276C200.266 94.5478 203.244 98.7673 198.208 103.4C198.192 103.404 198.176 103.4 198.162 103.405C198.026 103.439 197.947 103.546 197.905 103.67C193.615 107.442 188.159 109.745 182.673 110.307C182.171 110.36 182.208 111.107 182.713 111.107C182.966 111.041 191.29 110.65 198.546 104.173C199.035 104.142 199.508 104.429 199.785 104.79C200.689 105.968 200.454 108.062 199.933 109.623C196.941 118.2 185.981 111.629 181.204 116.838C179.361 118.83 179.191 121.657 179.173 124.623C179.109 137.298 178.917 150.227 178.74 161.352C178.612 170.519 178.838 179.711 178.644 188.831C178.482 196.03 179.413 202.589 179.51 210.625ZM91.1458 36.676C90.9375 37.8458 89.8638 38.7753 88.7099 38.8554C85.8574 39.0478 84.2067 35.3298 86.1458 33.1824C87.6394 31.5477 90.2292 32.1471 90.9215 34.224C91.1426 34.8138 91.258 35.9468 91.1458 36.676ZM81.0657 36.676C80.8414 37.8458 79.7837 38.7753 78.6298 38.8554C75.7612 39.0478 74.1266 35.3298 76.0657 33.1824C77.6298 31.4692 80.8045 32.0253 81.0657 35.426C81.1138 35.8426 81.1298 36.2593 81.0657 36.676ZM70.9696 36.676C70.7612 37.8458 69.6875 38.7753 68.5497 38.8554C65.6811 39.0478 64.0465 35.3298 65.9856 33.1824C67.5769 31.4404 70.7292 32.0782 70.9856 35.426C71.0176 35.8426 71.0497 36.2593 70.9696 36.676ZM162.147 35.2112C167.122 32.3394 177.28 23.9548 182.218 29.8186C184.09 32.0461 184.583 35.1006 184.931 38.0397C186.18 48.325 185.466 59.6215 183.67 68.3122C178.538 65.1824 172.205 69.825 176.745 77.2865C177.854 79.1054 179.252 80.9564 179.987 83.0718L179.95 83.2369C178.938 87.7401 177.819 89.091 173.708 86.6375C158.37 77.3474 145.466 68.7529 135.561 61.6215C134.441 60.825 133.455 60.0878 132.715 59.1279C130.809 56.6006 131.679 54.3843 134.33 52.6535C144.615 45.9997 150.385 42.1247 162.147 35.2112ZM170.337 93.0926C169.731 92.5419 169.257 91.862 168.951 91.1032C168.644 90.3445 168.512 89.5264 168.564 88.7096C168.7 86.8763 169.494 85.7929 169.803 85.1792C172.236 86.6936 175.038 88.6952 177.011 88.6471C178.966 88.567 179.816 86.8314 180.327 85.0526C180.74 93.5029 174.135 96.3923 170.337 93.0926ZM201.888 172.312C200.726 171.343 199.809 170.426 198.288 169.001C197.212 170.871 196.718 171.953 195.737 172.626C195.295 172.92 194.849 172.262 195.282 171.963C196.064 171.429 196.42 170.633 197.686 168.445C196.383 167.259 195.011 166.142 193.455 165.357C192.984 165.121 193.338 164.404 193.816 164.642C195.405 165.444 196.79 166.559 198.098 167.74C198.989 166.222 199.935 164.736 200.933 163.285C201.231 162.851 201.894 163.307 201.59 163.743C200.571 165.21 199.619 166.74 198.704 168.29C200.218 169.703 201.176 170.674 202.402 171.697C202.811 172.037 202.29 172.649 201.888 172.312ZM212.688 168.506C213.157 168.743 212.803 169.46 212.327 169.222C211.555 168.835 211.171 168.45 208.338 166.001C207.886 166.684 207.454 167.379 207.063 168.104C206.814 168.567 206.104 168.195 206.357 167.722C206.777 166.947 207.239 166.2 207.728 165.472L204.173 162.397C203.768 162.048 204.301 161.447 204.696 161.791L208.194 164.817C209.299 163.249 210.563 161.8 211.966 160.492C212.333 160.152 212.877 160.671 212.54 161.053C211.268 162.402 210.556 162.851 208.796 165.339C211.571 167.737 212.003 168.165 212.688 168.506ZM200.588 157.746C199.329 156.958 198.869 154.58 198.425 153.008C198.444 152.992 198.494 152.968 198.54 152.944C201.433 151.785 201.583 151.298 201.982 152.745L202.045 152.964C202.438 154.242 203.191 155.23 203.394 156.541C203.587 158.024 201.769 158.452 200.588 157.746ZM213.189 177.918C212.425 177.379 211.635 176.825 210.75 176.543C208.146 175.718 204.869 177.28 203.487 181.125C203.306 181.623 202.555 181.352 202.734 180.852C204.261 176.605 207.971 174.82 210.994 175.78C211.994 176.099 212.873 176.716 213.649 177.262C214.082 177.567 213.625 178.222 213.189 177.918ZM221.212 142.716C220.771 148.126 219.992 153.995 216.683 158.325C215.936 154.695 215.481 152.046 215.441 151.884C215.333 151.301 206.825 154.238 203.835 155.15C203.268 153.804 203.022 153.42 202.813 152.73C202.708 152.57 202.399 150.428 200.705 151.178L198.17 152.235C197.349 152.644 197.663 153.219 197.899 154.11C198.077 154.777 198.28 155.529 198.566 156.23C194.433 156.936 190.261 157.511 186.21 158.535C186.255 160.349 186.481 162.147 186.764 163.936H179.526C179.598 154.373 179.875 144.304 179.976 124.626C179.994 121.825 180.144 119.162 181.795 117.379C186.191 112.588 197.484 119.072 200.692 109.879C201.494 107.476 201.519 104.242 199.274 103.471C200.066 102.671 200.832 101.721 201.308 100.565C202.846 96.8122 200.269 93.7112 197.938 94.1359C197.402 94.232 196.88 94.3923 196.38 94.6102C197.998 91.2352 197.133 88.5157 195.409 87.2705C193.402 85.8234 191.361 86.6407 189.546 88.2929C191.122 82.5349 190.276 75.091 186.204 70.8378C185.992 70.5654 185.546 69.7529 184.386 68.8154C185.305 64.7401 186.33 56.6471 186.37 49.1519C215.351 49.7016 221.079 49.5526 224.303 49.5766C224.071 80.6263 223.938 110.006 221.21 142.718L221.212 142.716ZM37.4263 79.9195C37.0192 79.551 37.2228 79.091 36.9872 75.4612L28.3013 75.8747C27.4647 75.9147 26.9808 75.2657 27.7292 74.0189L36.1811 60.3186C36.7372 59.4324 37.9952 59.4692 38.0465 60.5429L38.6779 73.8394C40.8878 73.7849 41.3542 73.5846 41.7196 73.8955C42.0914 74.2096 42.1603 75.216 41.1426 75.2641L38.7516 75.3763L38.9327 79.192C38.984 80.2449 37.8141 80.2721 37.4263 79.9195ZM58.1058 86.7993C61.6154 86.8474 64.9359 86.7881 68.4151 86.6647C71.5321 86.5558 76.4455 87.6231 78.5721 84.7961C79.2724 83.8667 79.375 82.6824 79.4423 81.559C79.8838 74.0254 79.6424 66.4673 78.7212 58.9772C78.3157 55.6599 77.149 52.1824 72.9984 51.9628C66.1635 51.5974 59.6587 52.0077 40.7933 52.7657V46.9163C86.2228 47.0029 71.8862 46.7913 139.744 48.184C137.633 49.5461 135.78 50.7529 133.893 51.982C130.508 54.1936 130.104 56.9981 132.079 59.6135C132.888 60.6647 133.923 61.4404 135.095 62.2737C143.877 68.5974 154.305 75.5173 162.904 80.9003C161.833 82.2977 160.692 83.6824 159.833 85.6856C159.777 85.8138 159.814 85.942 159.886 86.051C159.21 87.7497 159.154 88.9901 159.133 90.3987C156.718 88.7897 153.271 88.4756 151.082 90.2657C151.242 90.2978 151.37 90.458 151.386 90.6183C151.402 90.9228 151.258 91.1792 151.162 91.3394C149.736 93.599 149.784 93.9516 149.383 93.9516C149.087 93.9516 148.87 93.6199 149.03 93.3426L150.473 90.9228C150.521 90.8587 150.601 90.7304 150.585 90.6824C150.569 90.5381 150.649 90.4099 150.761 90.3298C152.327 79.7256 135.269 72.2737 121.274 79.2721C117.636 81.083 114.992 83.9035 110.681 83.9997C108.678 84.0317 106.563 83.3266 105.345 81.7401C104.127 80.1535 104.111 77.6215 105.617 76.3074C102.316 78.599 98.9664 80.9388 96.4503 84.0798C91.3301 90.4997 90.2708 99.8971 91.375 107.865C85.7548 107.791 80.2115 112.032 78.8189 117.654C76.9311 125.271 82.7628 133.697 91.2949 133.697C94.2436 133.697 97.0914 132.585 99.3622 130.434C102.718 138.36 109.109 142.972 116.417 143.961L116.357 155.019C104.196 155.562 93.9615 155.9 85.5369 163.936H57.1394C48.1266 163.936 40.7933 156.61 40.7933 147.605V137.141C53.2164 138.698 64.3189 128.868 64.3189 116.275C64.3189 103.549 53.0785 93.849 40.7933 95.3939L40.7885 87.6904C46.5577 87.4163 52.3237 86.7208 58.1058 86.7993ZM50.7532 58.9981C56.1539 58.7417 57.8766 63.5429 58.1314 68.9179C58.3862 74.2513 57.0801 79.2705 51.7308 79.5253C46.4103 79.7785 44.6074 74.9388 44.3526 69.6038C44.0962 64.2208 45.4215 59.2513 50.7532 58.9981ZM73.0962 77.567C73.1442 78.6183 71.9792 78.6503 71.5898 78.2945C71.1827 77.926 71.3862 77.466 71.149 73.8362C62.0769 74.1968 62.234 74.426 61.7853 74.067C61.4776 73.8202 61.4599 73.3619 61.593 72.9933C61.774 72.4804 61.7164 72.7208 70.343 58.6936C70.9327 57.7545 72.1603 57.8939 72.2083 58.9179L72.8414 72.2144L75.2324 72.1006C76.2789 72.051 76.2532 73.083 75.9375 73.4083C75.6026 73.7513 75.1282 73.5958 72.9151 73.7513L73.0962 77.567Z" fill="#414141"/>
<path d="M53.4856 124.86C53.5664 124.86 53.6454 124.836 53.712 124.79C53.7787 124.744 53.8299 124.679 53.8591 124.604C53.8882 124.529 53.8938 124.446 53.8752 124.367C53.8566 124.289 53.8146 124.218 53.7548 124.163L42.976 114.335L53.2965 104.447C53.6795 104.078 53.1234 103.501 52.742 103.867L42.3814 113.793L32.9359 105.179C32.5481 104.82 32.0032 105.413 32.3974 105.771L41.8045 114.347L31.5513 124.171C31.1667 124.54 31.7276 125.117 32.1058 124.748L42.3958 114.889C53.8494 125.279 53.1907 124.86 53.4856 124.86ZM63.4664 72.66L71.0785 72.2978L70.5497 61.1968L63.4664 72.66ZM51.6571 77.9596C55.9583 77.7545 56.5449 73.2866 56.3397 69.0045C56.133 64.6552 55.1779 60.3571 50.8301 60.5638C46.5176 60.7689 45.9423 65.1856 46.1474 69.4901C46.351 73.7866 47.3654 78.1632 51.6571 77.9596ZM29.3013 74.2866L36.9135 73.9244L36.3846 62.8218L29.3013 74.2866ZM38.8734 199.942C45.0064 205.28 53.3686 208.468 62.0465 208.206C62.5641 208.19 62.5641 207.402 62.0208 207.405C53.8221 207.662 45.5801 204.719 39.399 199.338C34.476 195.053 31.1619 188.915 34.5913 183.373C37.6458 187.227 41.4022 187.011 43.2612 184.367C46.2019 180.184 39.0176 176.537 34.5913 182.008C28.6635 173.093 29.9311 160.389 31.5353 149.989C31.6186 149.46 30.8205 149.351 30.742 149.865C29.1202 160.392 27.8109 173.682 34.0881 182.692C30.1699 188.586 33.5144 195.282 38.8734 199.942ZM42.6074 183.907C41.0433 186.126 37.8317 186.327 35.0689 182.681C38.7548 177.87 44.9936 180.505 42.6074 183.907Z" fill="#414141"/>
</svg>
