<svg width="64" height="64" viewBox="0 0 64 64" fill="none" xmlns="http://www.w3.org/2000/svg">
<rect width="64" height="64" rx="32" fill="#FF8133"/>
<path d="M26.3333 21.3335C26.3333 20.7812 25.8856 20.3335 25.3333 20.3335C24.781 20.3335 24.3333 20.7812 24.3333 21.3335V23.7554C22.3426 24.0368 20.7698 25.6114 20.5036 27.6199L20.3882 28.4906C20.3686 28.6382 20.3499 28.7858 20.3321 28.9336C20.2847 29.3256 20.5935 29.6668 20.9883 29.6668H43.0116C43.4064 29.6668 43.7152 29.3256 43.6679 28.9336C43.65 28.7858 43.6313 28.6382 43.6117 28.4905L43.4963 27.6199C43.2301 25.6115 41.6574 24.0369 39.6667 23.7554V21.3335C39.6667 20.7812 39.219 20.3335 38.6667 20.3335C38.1144 20.3335 37.6667 20.7812 37.6667 21.3335V23.557C33.8964 23.2212 30.1036 23.2212 26.3333 23.557V21.3335Z" fill="#414141"/>
<path d="M43.9261 32.3009C43.9144 31.9457 43.6209 31.6668 43.2654 31.6668H20.7345C20.3791 31.6668 20.0855 31.9457 20.0738 32.3009C19.9946 34.7111 20.141 37.1263 20.5127 39.5146C20.794 41.3227 22.2629 42.7114 24.0839 42.891L25.6746 43.0479C29.8813 43.4627 34.1186 43.4627 38.3254 43.0479L39.916 42.891C41.737 42.7114 43.2059 41.3227 43.4872 39.5146C43.8589 37.1263 44.0053 34.7111 43.9261 32.3009Z" fill="#414141"/>
</svg>
