<svg width="101" height="100" viewBox="0 0 101 100" fill="none" xmlns="http://www.w3.org/2000/svg">
<g clip-path="url(#clip0_187_8458)">
<path d="M34.875 2.38281C34.0156 2.67578 32.3945 4.29688 31.6719 5.56641C31.3789 6.09375 30.7344 7.46094 30.2461 8.59375C29.7773 9.72656 29.1719 11.1133 28.8984 11.6797C28.6445 12.2461 28.4297 12.7539 28.4297 12.8125C28.4297 12.8516 28.0781 13.4766 27.6289 14.1602C25.9883 16.7773 24.6406 17.3242 18.5664 17.8711C12.5312 18.418 10.7148 19.082 9.66016 21.1523C8.80078 22.793 8.9375 24.668 10.3438 30.7031C11.75 36.8164 11.2617 38.0273 5.34375 43.0664C3.21484 44.8633 1.49609 46.7383 0.96875 47.793C0.695312 48.3398 0.597656 48.9648 0.597656 50.0977C0.597656 51.5625 0.636719 51.7188 1.30078 52.7344C2.19922 54.0625 3.03906 54.9414 5.61719 57.1484C11.2422 61.9727 11.7305 63.2422 10.3438 69.2969C9.07422 74.8047 8.87891 76.3477 9.32812 78.0859C9.66016 79.4336 10.9688 80.6445 12.6484 81.2109C13.9375 81.6211 14.8164 81.7578 20.2266 82.3047C21.7305 82.4609 23.4492 82.7734 24.2305 83.0273C26.5547 83.7891 27.8047 85.4102 29.6992 90.1367C31.9258 95.7031 33.7812 97.8516 36.3594 97.8516C37.5703 97.8516 39.5039 97.0703 42.1016 95.5078C43.5469 94.6484 45.6562 93.4766 46.7891 92.9102C48.7812 91.9336 48.8789 91.8945 50.5 91.9141C52.0039 91.9141 52.2969 91.9727 53.7031 92.6367C54.543 93.0273 56.4961 94.1211 58.0586 95.0391C62.4531 97.6758 64.1523 98.2031 66.1055 97.5586C67.8633 96.9727 69.7188 94.3555 71.2617 90.2344C71.5156 89.5312 72.082 88.2617 72.5312 87.4023C74.6602 83.1836 75.6953 82.6758 83.4102 82.0312C86.3203 81.7773 88.0391 81.4258 89.2305 80.8398C92.1016 79.3945 92.4727 77.1484 90.9297 70.5078C89.9141 66.1523 89.7773 63.9453 90.4609 62.5C91.0469 61.25 92.2969 59.8242 94.4453 57.9883C97.2188 55.625 98.8984 53.9258 99.6992 52.7344C100.363 51.6992 100.402 51.582 100.402 50C100.383 48.5938 100.324 48.2227 99.8945 47.5195C99.2305 46.3867 97.9805 45.1172 95.2852 42.7539C89.5039 37.6953 89.1914 36.7578 90.9297 29.4922C92.043 24.8438 92.1406 22.6953 91.3398 21.1328C90.3047 19.1211 88.3906 18.3984 82.6094 17.8906C78.8008 17.5391 78.3125 17.4609 76.9648 17.0508C75.6562 16.6406 74.6992 16.0156 73.9961 15.0977C73.293 14.2188 71.9258 11.543 71.2617 9.76562C70.4414 7.57812 69.0156 4.88281 68.1367 3.90625C67.043 2.67578 65.6367 2.07031 64.2695 2.20703C62.7852 2.36328 61.3789 2.96875 58.4883 4.70703C55.168 6.71875 53.0586 7.75391 51.6133 8.04688C49.543 8.47656 47.8047 7.87109 43.1172 5.03906C38.8594 2.48047 36.6914 1.77734 34.875 2.38281ZM69.543 35.332C70.5391 35.7812 71.6328 36.8359 72.2188 37.9492C72.8633 39.1406 72.8633 41.7188 72.1992 42.9688C71.8867 43.5547 68.1758 47.4219 60.6758 54.9219C48.3125 67.3047 48.7031 66.9922 46.1055 66.9922C43.7227 66.9922 43.625 66.9141 35.832 59.0625C29.3672 52.5586 28.8398 51.9727 28.5273 50.9961C27.8438 48.8672 28.5469 46.25 30.1875 44.9023C31.8477 43.5156 34.3867 43.2031 36.2422 44.1406C36.8086 44.4141 38.7422 46.1719 41.6133 49.043L46.1055 53.5156L54.6992 44.9219C59.4258 40.1953 63.625 36.0938 64.0352 35.8008C65.5586 34.7461 67.7852 34.5508 69.543 35.332Z" fill="#FF8133"/>
<path d="M65.148 35.3904C64.1714 35.7615 63.273 36.6013 55.0894 44.7459L46.105 53.6912L41.4175 49.0428C37.355 45.0193 36.5933 44.3553 35.773 44.0818C33.0386 43.1638 30.3433 44.2185 29.0347 46.699C28.4293 47.8709 28.3902 48.0467 28.4683 49.4138C28.5269 50.2732 28.7027 51.1521 28.898 51.5623C29.0933 51.9334 32.3355 55.3318 36.105 59.1209C43.6636 66.699 43.8394 66.8553 46.105 66.8748C48.3902 66.8943 47.8238 67.3631 60.2457 54.9998C72.8043 42.4803 72.5699 42.7732 72.5699 40.4295C72.5699 38.8084 71.9839 37.5193 70.7535 36.3865C69.2496 34.9998 67.1597 34.6287 65.148 35.3904Z" fill="white"/>
</g>
<defs>
<clipPath id="clip0_187_8458">
<rect width="100" height="100" fill="white" transform="translate(0.5)"/>
</clipPath>
</defs>
</svg>
