<svg width="32" height="32" viewBox="0 0 32 32" fill="none" xmlns="http://www.w3.org/2000/svg">
<rect width="32" height="32" rx="4" fill="#FF8133"/>
<path d="M20.4765 7.00307C20.6441 7.019 20.7164 7.22248 20.5974 7.3415L12.2773 15.6616C12.183 15.7558 12.1156 15.8735 12.0819 16.0024L11.0819 19.8308C11.0147 20.0884 11.089 20.3624 11.2773 20.5507C11.4655 20.739 11.7395 20.8133 11.9971 20.746L15.8256 19.746C15.9545 19.7123 16.0721 19.6449 16.1664 19.5507L24.6043 11.1128C24.7227 10.9944 24.9251 11.0652 24.9426 11.2317C25.2941 14.5809 25.2742 17.9592 24.8829 21.3051C24.6601 23.2101 23.1289 24.7059 21.2305 24.9181C17.7824 25.3035 14.2177 25.3035 10.7695 24.9181C8.87114 24.7059 7.33995 23.2101 7.11713 21.3051C6.70485 17.7801 6.70485 14.219 7.11713 10.694C7.33995 8.78898 8.87114 7.2932 10.7695 7.08103C13.9669 6.72367 17.2646 6.69769 20.4765 7.00307Z" fill="black"/>
<path d="M21.8234 8.23684C21.921 8.1394 22.079 8.1394 22.1766 8.23683L23.591 9.65119C23.6886 9.74882 23.6886 9.90711 23.591 10.0047L15.2976 18.2982C15.2663 18.3294 15.2267 18.352 15.184 18.3633L13.2695 18.8633C13.0849 18.9114 12.9168 18.7428 12.9647 18.5582L13.4647 16.644C13.4759 16.601 13.4984 16.5618 13.5298 16.5304L21.8234 8.23684Z" fill="black"/>
</svg>
