<svg width="378" height="486" viewBox="0 0 378 486" fill="none" xmlns="http://www.w3.org/2000/svg">
<g filter="url(#filter0_d_184_4695)">
<rect x="8" y="6" width="362" height="470" rx="24" fill="white" shape-rendering="crispEdges"/>
<path d="M164.368 230.065C164.959 229.473 164.959 228.488 164.368 227.897L159.638 223.168L165.747 217.059C166.338 216.468 166.338 215.482 165.747 214.891C165.156 214.3 164.171 214.3 163.579 214.891L157.471 221L151.953 215.482C151.362 214.891 150.376 214.891 149.785 215.482C149.194 216.073 149.194 217.059 149.785 217.65L155.303 223.168L149.785 228.685C149.194 229.276 149.194 230.262 149.785 230.853C150.376 231.444 151.362 231.444 151.953 230.853L157.471 225.335L162.2 230.065C162.988 230.656 163.776 230.656 164.368 230.065ZM163.776 249.573C163.185 250.165 163.185 251.15 163.974 251.741C164.565 252.332 165.55 252.332 166.141 251.544C175.797 240.903 192.35 241.1 201.809 250.953C202.4 251.544 203.385 251.544 203.976 250.953C204.568 250.362 204.568 249.376 203.976 248.785C193.138 237.75 174.615 237.553 163.776 249.573Z" fill="black"/>
<path d="M237.476 261.397L242.6 209.177C242.797 207.009 242.009 204.841 240.629 203.265C239.25 201.688 237.082 200.703 234.915 200.703V187.106C234.915 181.982 230.974 177.844 225.85 177.647L142.888 176.465C137.568 176.465 133.626 180.603 133.429 185.53V189.077C131.065 189.668 129.291 191.244 128.306 193.609C127.124 194.988 126.335 196.762 125.941 198.141C124.956 201.688 125.153 205.432 125.547 209.177C127.124 226.518 128.7 243.662 130.079 261.003C130.671 268.491 132.641 271.644 143.479 272.235C174.418 273.812 205.356 273.615 236.294 273.024C237.476 273.024 238.856 273.024 239.841 272.432C241.024 271.841 241.812 270.659 241.615 269.477C241.024 266.915 236.688 267.309 234.126 267.112C235.9 265.93 237.082 263.959 237.476 261.397ZM142.888 179.618L225.85 180.8C229.2 180.8 232.156 183.756 231.959 187.106V200.9H202.991C200.824 200.9 198.656 199.915 197.079 198.338L192.547 193.215C190.182 190.653 186.832 189.077 183.285 189.077H136.385V185.924C136.385 182.18 139.341 179.421 142.888 179.618ZM229.791 265.535H140.918C138.553 265.535 136.385 263.762 136.188 261.2L130.474 196.959C130.276 194.2 132.444 191.835 135.203 191.835H183.285C186.044 191.835 188.606 193.018 190.379 194.988L194.912 200.112C196.882 202.477 199.838 203.856 202.991 203.856H234.915C236.294 203.856 237.476 204.447 238.462 205.432C239.447 206.418 239.841 207.797 239.644 208.98L234.521 261.2C234.324 263.565 232.156 265.535 229.791 265.535Z" fill="black"/>
<path d="M209.1 220.606L213.435 216.271C214.026 215.679 214.026 214.694 213.435 214.103C212.844 213.512 211.859 213.512 211.268 214.103L206.932 218.438L201.415 212.921C200.824 212.329 199.838 212.329 199.247 212.921C198.656 213.512 198.656 214.497 199.247 215.088L204.765 220.606L199.641 225.729C199.05 226.321 199.05 227.306 199.641 227.897C200.232 228.488 201.218 228.488 201.809 227.897L206.932 222.773L212.45 228.291C213.041 228.882 214.026 228.882 214.618 228.291C215.209 227.7 215.209 226.715 214.618 226.123L209.1 220.606ZM235.9 168.976C234.126 171.341 232.747 173.706 231.762 176.465C231.565 177.253 231.959 178.041 232.747 178.238C233.535 178.435 234.324 178.041 234.521 177.253C235.309 174.888 236.491 172.523 238.068 170.553C238.659 169.962 238.462 168.976 237.871 168.385C237.279 168.385 236.491 168.385 235.9 168.976ZM248.512 174.691C248.118 174.1 247.132 173.706 246.541 174.297L237.279 180.209C236.688 180.603 236.491 181.588 236.885 182.179C237.279 182.771 238.265 183.165 238.856 182.573L248.118 176.662C248.709 176.268 248.906 175.282 248.512 174.691ZM251.271 185.332L240.826 186.121C240.038 186.121 239.447 186.909 239.447 187.697C239.447 188.485 240.235 189.076 241.024 189.076L251.468 188.288C252.256 188.288 252.847 187.5 252.847 186.712C252.65 185.923 252.059 185.332 251.271 185.332Z" fill="black"/>
<path d="M92.324 309.346C92.552 309.346 92.756 309.436 92.936 309.616C93.128 309.784 93.224 310 93.224 310.264C93.224 310.36 93.206 310.456 93.17 310.552C93.146 310.636 93.104 310.726 93.044 310.822L88.922 316.654L89.21 315.592V321.082C89.21 321.346 89.12 321.568 88.94 321.748C88.76 321.916 88.556 322 88.328 322C88.076 322 87.86 321.916 87.68 321.748C87.512 321.568 87.428 321.346 87.428 321.082V315.736L87.554 316.258L83.576 310.948C83.48 310.816 83.414 310.696 83.378 310.588C83.342 310.468 83.324 310.354 83.324 310.246C83.324 309.982 83.426 309.766 83.63 309.598C83.846 309.43 84.062 309.346 84.278 309.346C84.566 309.346 84.812 309.484 85.016 309.76L88.616 314.692L88.184 314.638L91.568 309.778C91.772 309.49 92.024 309.346 92.324 309.346ZM103.105 317.266C103.105 318.226 102.895 319.078 102.475 319.822C102.055 320.554 101.485 321.13 100.765 321.55C100.045 321.97 99.2354 322.18 98.3354 322.18C97.4354 322.18 96.6254 321.97 95.9054 321.55C95.1854 321.13 94.6094 320.554 94.1774 319.822C93.7574 319.078 93.5474 318.226 93.5474 317.266C93.5474 316.294 93.7574 315.442 94.1774 314.71C94.6094 313.966 95.1854 313.384 95.9054 312.964C96.6254 312.532 97.4354 312.316 98.3354 312.316C99.2354 312.316 100.045 312.532 100.765 312.964C101.485 313.384 102.055 313.966 102.475 314.71C102.895 315.442 103.105 316.294 103.105 317.266ZM101.305 317.266C101.305 316.606 101.173 316.036 100.909 315.556C100.645 315.064 100.285 314.68 99.8294 314.404C99.3854 314.116 98.8874 313.972 98.3354 313.972C97.7834 313.972 97.2794 314.116 96.8234 314.404C96.3674 314.68 96.0074 315.064 95.7434 315.556C95.4794 316.036 95.3474 316.606 95.3474 317.266C95.3474 317.902 95.4794 318.466 95.7434 318.958C96.0074 319.45 96.3674 319.834 96.8234 320.11C97.2794 320.386 97.7834 320.524 98.3354 320.524C98.8874 320.524 99.3854 320.386 99.8294 320.11C100.285 319.834 100.645 319.45 100.909 318.958C101.173 318.466 101.305 317.902 101.305 317.266ZM112.199 312.532C112.451 312.532 112.661 312.622 112.829 312.802C113.009 312.97 113.099 313.186 113.099 313.45V318.184C113.099 319.432 112.751 320.41 112.055 321.118C111.359 321.814 110.375 322.162 109.103 322.162C107.843 322.162 106.865 321.814 106.169 321.118C105.485 320.41 105.143 319.432 105.143 318.184V313.45C105.143 313.186 105.227 312.97 105.395 312.802C105.563 312.622 105.779 312.532 106.043 312.532C106.295 312.532 106.505 312.622 106.673 312.802C106.853 312.97 106.943 313.186 106.943 313.45V318.184C106.943 318.964 107.123 319.546 107.483 319.93C107.855 320.314 108.395 320.506 109.103 320.506C109.823 320.506 110.369 320.314 110.741 319.93C111.113 319.546 111.299 318.964 111.299 318.184V313.45C111.299 313.186 111.383 312.97 111.551 312.802C111.719 312.622 111.935 312.532 112.199 312.532ZM126.12 309.4C126.996 309.4 127.77 309.568 128.442 309.904C129.114 310.228 129.672 310.684 130.116 311.272C130.572 311.848 130.914 312.52 131.142 313.288C131.37 314.044 131.484 314.848 131.484 315.7C131.484 316.864 131.28 317.926 130.872 318.886C130.464 319.834 129.864 320.59 129.072 321.154C128.28 321.718 127.296 322 126.12 322H121.728C121.476 322 121.26 321.916 121.08 321.748C120.9 321.568 120.81 321.346 120.81 321.082V310.318C120.81 310.054 120.9 309.838 121.08 309.67C121.26 309.49 121.476 309.4 121.728 309.4H126.12ZM125.94 320.272C126.792 320.272 127.482 320.062 128.01 319.642C128.538 319.222 128.922 318.67 129.162 317.986C129.414 317.29 129.54 316.528 129.54 315.7C129.54 315.088 129.468 314.512 129.324 313.972C129.192 313.42 128.976 312.934 128.676 312.514C128.388 312.082 128.016 311.746 127.56 311.506C127.116 311.254 126.576 311.128 125.94 311.128H122.538L122.7 310.966V320.452L122.592 320.272H125.94ZM142.709 317.266C142.709 318.226 142.499 319.078 142.079 319.822C141.659 320.554 141.089 321.13 140.369 321.55C139.649 321.97 138.839 322.18 137.939 322.18C137.039 322.18 136.229 321.97 135.509 321.55C134.789 321.13 134.213 320.554 133.781 319.822C133.361 319.078 133.151 318.226 133.151 317.266C133.151 316.294 133.361 315.442 133.781 314.71C134.213 313.966 134.789 313.384 135.509 312.964C136.229 312.532 137.039 312.316 137.939 312.316C138.839 312.316 139.649 312.532 140.369 312.964C141.089 313.384 141.659 313.966 142.079 314.71C142.499 315.442 142.709 316.294 142.709 317.266ZM140.909 317.266C140.909 316.606 140.777 316.036 140.513 315.556C140.249 315.064 139.889 314.68 139.433 314.404C138.989 314.116 138.491 313.972 137.939 313.972C137.387 313.972 136.883 314.116 136.427 314.404C135.971 314.68 135.611 315.064 135.347 315.556C135.083 316.036 134.951 316.606 134.951 317.266C134.951 317.902 135.083 318.466 135.347 318.958C135.611 319.45 135.971 319.834 136.427 320.11C136.883 320.386 137.387 320.524 137.939 320.524C138.491 320.524 138.989 320.386 139.433 320.11C139.889 319.834 140.249 319.45 140.513 318.958C140.777 318.466 140.909 317.902 140.909 317.266ZM149.624 312.316C150.476 312.316 151.136 312.496 151.604 312.856C152.072 313.204 152.396 313.678 152.576 314.278C152.768 314.866 152.864 315.526 152.864 316.258V321.082C152.864 321.346 152.774 321.568 152.594 321.748C152.426 321.916 152.216 322 151.964 322C151.7 322 151.484 321.916 151.316 321.748C151.148 321.568 151.064 321.346 151.064 321.082V316.276C151.064 315.844 151.004 315.46 150.884 315.124C150.764 314.776 150.554 314.5 150.254 314.296C149.966 314.08 149.558 313.972 149.03 313.972C148.538 313.972 148.106 314.08 147.734 314.296C147.362 314.5 147.068 314.776 146.852 315.124C146.648 315.46 146.546 315.844 146.546 316.276V321.082C146.546 321.346 146.456 321.568 146.276 321.748C146.108 321.916 145.898 322 145.646 322C145.382 322 145.166 321.916 144.998 321.748C144.83 321.568 144.746 321.346 144.746 321.082V313.45C144.746 313.186 144.83 312.97 144.998 312.802C145.166 312.622 145.382 312.532 145.646 312.532C145.898 312.532 146.108 312.622 146.276 312.802C146.456 312.97 146.546 313.186 146.546 313.45V314.458L146.222 314.638C146.306 314.374 146.45 314.11 146.654 313.846C146.87 313.57 147.128 313.318 147.428 313.09C147.728 312.85 148.064 312.664 148.436 312.532C148.808 312.388 149.204 312.316 149.624 312.316ZM157.596 311.002C157.596 311.374 157.488 311.746 157.272 312.118C157.068 312.49 156.804 312.802 156.48 313.054C156.156 313.294 155.814 313.414 155.454 313.414C155.334 313.414 155.208 313.366 155.076 313.27C154.956 313.174 154.896 313.012 154.896 312.784C154.896 312.544 154.968 312.406 155.112 312.37C155.268 312.322 155.418 312.262 155.562 312.19C155.73 312.106 155.862 312.004 155.958 311.884C156.054 311.752 156.102 311.596 156.102 311.416C156.102 311.284 156.042 311.17 155.922 311.074C155.814 310.978 155.67 310.93 155.49 310.93C155.418 310.93 155.334 310.942 155.238 310.966C155.142 310.978 155.064 311.008 155.004 311.056C154.896 310.996 154.806 310.924 154.734 310.84C154.662 310.756 154.626 310.63 154.626 310.462C154.626 310.138 154.776 309.862 155.076 309.634C155.376 309.406 155.718 309.292 156.102 309.292C156.558 309.292 156.918 309.454 157.182 309.778C157.458 310.09 157.596 310.498 157.596 311.002ZM159.702 312.64H163.932C164.172 312.64 164.37 312.724 164.526 312.892C164.694 313.048 164.778 313.246 164.778 313.486C164.778 313.714 164.694 313.906 164.526 314.062C164.37 314.218 164.172 314.296 163.932 314.296H159.702C159.462 314.296 159.258 314.218 159.09 314.062C158.934 313.894 158.856 313.696 158.856 313.468C158.856 313.228 158.934 313.03 159.09 312.874C159.258 312.718 159.462 312.64 159.702 312.64ZM161.592 310.3C161.856 310.3 162.072 310.39 162.24 310.57C162.408 310.738 162.492 310.954 162.492 311.218V319.57C162.492 319.786 162.528 319.96 162.6 320.092C162.672 320.224 162.768 320.314 162.888 320.362C163.02 320.41 163.152 320.434 163.284 320.434C163.416 320.434 163.53 320.41 163.626 320.362C163.734 320.314 163.86 320.29 164.004 320.29C164.148 320.29 164.28 320.356 164.4 320.488C164.52 320.62 164.58 320.8 164.58 321.028C164.58 321.316 164.424 321.55 164.112 321.73C163.8 321.91 163.464 322 163.104 322C162.9 322 162.66 321.982 162.384 321.946C162.108 321.91 161.838 321.82 161.574 321.676C161.322 321.532 161.112 321.304 160.944 320.992C160.776 320.668 160.692 320.218 160.692 319.642V311.218C160.692 310.954 160.776 310.738 160.944 310.57C161.124 310.39 161.34 310.3 161.592 310.3ZM172.951 309.4C173.191 309.4 173.401 309.49 173.581 309.67C173.773 309.838 173.869 310.054 173.869 310.318V321.082C173.857 321.346 173.755 321.568 173.563 321.748C173.383 321.916 173.167 322 172.915 322C172.639 322 172.411 321.916 172.231 321.748C172.063 321.568 171.979 321.346 171.979 321.082V310.318C171.979 310.054 172.069 309.838 172.249 309.67C172.429 309.49 172.663 309.4 172.951 309.4ZM181.069 309.4C181.357 309.4 181.585 309.49 181.753 309.67C181.921 309.838 182.005 310.054 182.005 310.318V321.082C182.005 321.346 181.915 321.568 181.735 321.748C181.567 321.916 181.339 322 181.051 322C180.799 322 180.583 321.916 180.403 321.748C180.223 321.568 180.133 321.346 180.133 321.082V310.318C180.133 310.054 180.223 309.838 180.403 309.67C180.595 309.49 180.817 309.4 181.069 309.4ZM172.879 314.764H181.087L181.069 316.492H172.861L172.879 314.764ZM192.477 312.388C192.741 312.388 192.957 312.478 193.125 312.658C193.293 312.826 193.377 313.042 193.377 313.306V321.082C193.377 321.346 193.293 321.568 193.125 321.748C192.957 321.916 192.741 322 192.477 322C192.225 322 192.009 321.916 191.829 321.748C191.661 321.568 191.577 321.346 191.577 321.082V319.786L191.955 319.84C191.955 320.056 191.865 320.296 191.685 320.56C191.517 320.824 191.283 321.082 190.983 321.334C190.683 321.574 190.329 321.778 189.921 321.946C189.513 322.102 189.075 322.18 188.607 322.18C187.779 322.18 187.035 321.97 186.375 321.55C185.715 321.118 185.193 320.53 184.809 319.786C184.425 319.042 184.233 318.196 184.233 317.248C184.233 316.276 184.425 315.424 184.809 314.692C185.193 313.948 185.709 313.366 186.357 312.946C187.017 312.526 187.749 312.316 188.553 312.316C189.069 312.316 189.543 312.4 189.975 312.568C190.419 312.736 190.803 312.952 191.127 313.216C191.451 313.48 191.697 313.762 191.865 314.062C192.045 314.35 192.135 314.626 192.135 314.89L191.577 314.944V313.306C191.577 313.054 191.661 312.838 191.829 312.658C192.009 312.478 192.225 312.388 192.477 312.388ZM188.805 320.524C189.369 320.524 189.867 320.38 190.299 320.092C190.731 319.804 191.067 319.414 191.307 318.922C191.547 318.418 191.667 317.86 191.667 317.248C191.667 316.624 191.547 316.066 191.307 315.574C191.067 315.082 190.731 314.692 190.299 314.404C189.867 314.116 189.369 313.972 188.805 313.972C188.253 313.972 187.761 314.116 187.329 314.404C186.909 314.692 186.573 315.082 186.321 315.574C186.081 316.066 185.961 316.624 185.961 317.248C185.961 317.86 186.081 318.418 186.321 318.922C186.573 319.414 186.909 319.804 187.329 320.092C187.761 320.38 188.253 320.524 188.805 320.524ZM195.904 312.442C196.084 312.442 196.252 312.49 196.408 312.586C196.576 312.682 196.696 312.826 196.768 313.018L199.594 319.552L199.252 319.714L202.114 313.036C202.282 312.64 202.552 312.448 202.924 312.46C203.164 312.46 203.362 312.538 203.518 312.694C203.686 312.838 203.77 313.03 203.77 313.27C203.77 313.342 203.758 313.42 203.734 313.504C203.71 313.576 203.68 313.648 203.644 313.72L200.224 321.424C200.068 321.784 199.81 321.976 199.45 322C199.27 322.024 199.09 321.988 198.91 321.892C198.742 321.784 198.61 321.628 198.514 321.424L195.112 313.72C195.088 313.672 195.064 313.612 195.04 313.54C195.016 313.456 195.004 313.36 195.004 313.252C195.004 313.072 195.082 312.892 195.238 312.712C195.406 312.532 195.628 312.442 195.904 312.442ZM209.924 322.18C208.928 322.18 208.064 321.976 207.332 321.568C206.6 321.148 206.03 320.578 205.622 319.858C205.226 319.126 205.028 318.292 205.028 317.356C205.028 316.3 205.238 315.4 205.658 314.656C206.09 313.9 206.648 313.324 207.332 312.928C208.016 312.52 208.742 312.316 209.51 312.316C210.098 312.316 210.656 312.436 211.184 312.676C211.712 312.904 212.18 313.228 212.588 313.648C213.008 314.056 213.338 314.542 213.578 315.106C213.818 315.658 213.944 316.264 213.956 316.924C213.944 317.164 213.848 317.362 213.668 317.518C213.488 317.674 213.278 317.752 213.038 317.752H206.036L205.604 316.222H212.372L212.03 316.546V316.096C212.006 315.676 211.868 315.31 211.616 314.998C211.364 314.674 211.052 314.428 210.68 314.26C210.308 314.08 209.918 313.99 209.51 313.99C209.15 313.99 208.802 314.05 208.466 314.17C208.142 314.278 207.848 314.458 207.584 314.71C207.332 314.962 207.128 315.298 206.972 315.718C206.828 316.126 206.756 316.636 206.756 317.248C206.756 317.908 206.894 318.484 207.17 318.976C207.446 319.468 207.818 319.852 208.286 320.128C208.754 320.392 209.27 320.524 209.834 320.524C210.278 320.524 210.644 320.482 210.932 320.398C211.22 320.302 211.46 320.188 211.652 320.056C211.844 319.924 212.012 319.798 212.156 319.678C212.336 319.57 212.516 319.516 212.696 319.516C212.912 319.516 213.092 319.594 213.236 319.75C213.38 319.894 213.452 320.068 213.452 320.272C213.452 320.536 213.32 320.776 213.056 320.992C212.732 321.304 212.282 321.58 211.706 321.82C211.142 322.06 210.548 322.18 209.924 322.18ZM225.302 322C225.014 322 224.78 321.916 224.6 321.748C224.432 321.568 224.348 321.346 224.348 321.082V310.3H226.274V321.082C226.274 321.346 226.178 321.568 225.986 321.748C225.806 321.916 225.578 322 225.302 322ZM221.216 311.128C220.964 311.128 220.748 311.05 220.568 310.894C220.388 310.726 220.298 310.51 220.298 310.246C220.298 309.994 220.388 309.79 220.568 309.634C220.748 309.478 220.964 309.4 221.216 309.4H229.406C229.658 309.4 229.868 309.484 230.036 309.652C230.216 309.808 230.306 310.012 230.306 310.264C230.306 310.528 230.216 310.738 230.036 310.894C229.868 311.05 229.658 311.128 229.406 311.128H221.216ZM231.973 322C231.709 322 231.493 321.916 231.325 321.748C231.157 321.568 231.073 321.346 231.073 321.082V313.45C231.073 313.186 231.157 312.97 231.325 312.802C231.493 312.622 231.709 312.532 231.973 312.532C232.225 312.532 232.435 312.622 232.603 312.802C232.783 312.97 232.873 313.186 232.873 313.45V315.466L232.693 314.692C232.789 314.356 232.933 314.044 233.125 313.756C233.329 313.468 233.569 313.216 233.845 313C234.121 312.784 234.427 312.616 234.763 312.496C235.111 312.376 235.471 312.316 235.843 312.316C236.155 312.316 236.425 312.4 236.653 312.568C236.881 312.736 236.995 312.946 236.995 313.198C236.995 313.522 236.911 313.762 236.743 313.918C236.575 314.062 236.389 314.134 236.185 314.134C236.005 314.134 235.831 314.098 235.663 314.026C235.495 313.942 235.297 313.9 235.069 313.9C234.817 313.9 234.559 313.966 234.295 314.098C234.031 314.23 233.791 314.428 233.575 314.692C233.359 314.944 233.185 315.244 233.053 315.592C232.933 315.94 232.873 316.33 232.873 316.762V321.082C232.873 321.346 232.783 321.568 232.603 321.748C232.435 321.916 232.225 322 231.973 322ZM240.288 321.082C240.288 321.346 240.204 321.568 240.036 321.748C239.868 321.916 239.652 322 239.388 322C239.136 322 238.92 321.916 238.74 321.748C238.572 321.568 238.488 321.346 238.488 321.082V313.378C238.488 313.114 238.572 312.898 238.74 312.73C238.92 312.55 239.136 312.46 239.388 312.46C239.652 312.46 239.868 312.55 240.036 312.73C240.204 312.898 240.288 313.114 240.288 313.378V321.082ZM239.37 311.272C239.022 311.272 238.77 311.212 238.614 311.092C238.458 310.96 238.38 310.744 238.38 310.444V310.156C238.38 309.856 238.464 309.646 238.632 309.526C238.8 309.406 239.052 309.346 239.388 309.346C239.748 309.346 240.006 309.412 240.162 309.544C240.318 309.664 240.396 309.868 240.396 310.156V310.444C240.396 310.756 240.312 310.972 240.144 311.092C239.988 311.212 239.73 311.272 239.37 311.272ZM247.479 312.37C248.319 312.37 249.063 312.58 249.711 313C250.371 313.42 250.893 313.996 251.277 314.728C251.661 315.448 251.853 316.288 251.853 317.248C251.853 318.208 251.661 319.06 251.277 319.804C250.893 320.536 250.377 321.112 249.729 321.532C249.081 321.952 248.349 322.162 247.533 322.162C247.077 322.162 246.645 322.09 246.237 321.946C245.829 321.802 245.469 321.616 245.157 321.388C244.845 321.148 244.587 320.896 244.383 320.632C244.191 320.368 244.071 320.122 244.023 319.894L244.509 319.66V324.682C244.509 324.946 244.419 325.162 244.239 325.33C244.071 325.51 243.861 325.6 243.609 325.6C243.345 325.6 243.129 325.51 242.961 325.33C242.793 325.162 242.709 324.946 242.709 324.682V313.414C242.709 313.162 242.793 312.946 242.961 312.766C243.129 312.586 243.345 312.496 243.609 312.496C243.861 312.496 244.071 312.586 244.239 312.766C244.419 312.946 244.509 313.162 244.509 313.414V314.656L244.221 314.494C244.257 314.266 244.371 314.032 244.563 313.792C244.755 313.54 244.995 313.306 245.283 313.09C245.583 312.874 245.919 312.7 246.291 312.568C246.675 312.436 247.071 312.37 247.479 312.37ZM247.281 314.026C246.705 314.026 246.201 314.17 245.769 314.458C245.349 314.734 245.019 315.112 244.779 315.592C244.539 316.072 244.419 316.624 244.419 317.248C244.419 317.86 244.539 318.418 244.779 318.922C245.019 319.414 245.349 319.804 245.769 320.092C246.201 320.368 246.705 320.506 247.281 320.506C247.845 320.506 248.337 320.368 248.757 320.092C249.177 319.804 249.507 319.414 249.747 318.922C249.999 318.418 250.125 317.86 250.125 317.248C250.125 316.636 249.999 316.09 249.747 315.61C249.507 315.118 249.177 314.734 248.757 314.458C248.337 314.17 247.845 314.026 247.281 314.026ZM266.963 309.346C267.191 309.346 267.395 309.436 267.575 309.616C267.767 309.784 267.863 310 267.863 310.264C267.863 310.36 267.845 310.456 267.809 310.552C267.785 310.636 267.743 310.726 267.683 310.822L263.561 316.654L263.849 315.592V321.082C263.849 321.346 263.759 321.568 263.579 321.748C263.399 321.916 263.195 322 262.967 322C262.715 322 262.499 321.916 262.319 321.748C262.151 321.568 262.067 321.346 262.067 321.082V315.736L262.193 316.258L258.215 310.948C258.119 310.816 258.053 310.696 258.017 310.588C257.981 310.468 257.963 310.354 257.963 310.246C257.963 309.982 258.065 309.766 258.269 309.598C258.485 309.43 258.701 309.346 258.917 309.346C259.205 309.346 259.451 309.484 259.655 309.76L263.255 314.692L262.823 314.638L266.207 309.778C266.411 309.49 266.663 309.346 266.963 309.346ZM273.082 322.18C272.086 322.18 271.222 321.976 270.49 321.568C269.758 321.148 269.188 320.578 268.78 319.858C268.384 319.126 268.186 318.292 268.186 317.356C268.186 316.3 268.396 315.4 268.816 314.656C269.248 313.9 269.806 313.324 270.49 312.928C271.174 312.52 271.9 312.316 272.668 312.316C273.256 312.316 273.814 312.436 274.342 312.676C274.87 312.904 275.338 313.228 275.746 313.648C276.166 314.056 276.496 314.542 276.736 315.106C276.976 315.658 277.102 316.264 277.114 316.924C277.102 317.164 277.006 317.362 276.826 317.518C276.646 317.674 276.436 317.752 276.196 317.752H269.194L268.762 316.222H275.53L275.188 316.546V316.096C275.164 315.676 275.026 315.31 274.774 314.998C274.522 314.674 274.21 314.428 273.838 314.26C273.466 314.08 273.076 313.99 272.668 313.99C272.308 313.99 271.96 314.05 271.624 314.17C271.3 314.278 271.006 314.458 270.742 314.71C270.49 314.962 270.286 315.298 270.13 315.718C269.986 316.126 269.914 316.636 269.914 317.248C269.914 317.908 270.052 318.484 270.328 318.976C270.604 319.468 270.976 319.852 271.444 320.128C271.912 320.392 272.428 320.524 272.992 320.524C273.436 320.524 273.802 320.482 274.09 320.398C274.378 320.302 274.618 320.188 274.81 320.056C275.002 319.924 275.17 319.798 275.314 319.678C275.494 319.57 275.674 319.516 275.854 319.516C276.07 319.516 276.25 319.594 276.394 319.75C276.538 319.894 276.61 320.068 276.61 320.272C276.61 320.536 276.478 320.776 276.214 320.992C275.89 321.304 275.44 321.58 274.864 321.82C274.3 322.06 273.706 322.18 273.082 322.18ZM279.023 312.64H283.253C283.493 312.64 283.691 312.724 283.847 312.892C284.015 313.048 284.099 313.246 284.099 313.486C284.099 313.714 284.015 313.906 283.847 314.062C283.691 314.218 283.493 314.296 283.253 314.296H279.023C278.783 314.296 278.579 314.218 278.411 314.062C278.255 313.894 278.177 313.696 278.177 313.468C278.177 313.228 278.255 313.03 278.411 312.874C278.579 312.718 278.783 312.64 279.023 312.64ZM280.913 310.3C281.177 310.3 281.393 310.39 281.561 310.57C281.729 310.738 281.813 310.954 281.813 311.218V319.57C281.813 319.786 281.849 319.96 281.921 320.092C281.993 320.224 282.089 320.314 282.209 320.362C282.341 320.41 282.473 320.434 282.605 320.434C282.737 320.434 282.851 320.41 282.947 320.362C283.055 320.314 283.181 320.29 283.325 320.29C283.469 320.29 283.601 320.356 283.721 320.488C283.841 320.62 283.901 320.8 283.901 321.028C283.901 321.316 283.745 321.55 283.433 321.73C283.121 321.91 282.785 322 282.425 322C282.221 322 281.981 321.982 281.705 321.946C281.429 321.91 281.159 321.82 280.895 321.676C280.643 321.532 280.433 321.304 280.265 320.992C280.097 320.668 280.013 320.218 280.013 319.642V311.218C280.013 310.954 280.097 310.738 280.265 310.57C280.445 310.39 280.661 310.3 280.913 310.3ZM292.002 318.166C291.654 318.166 291.468 317.974 291.444 317.59L291.03 310.516C291.006 310.204 291.084 309.94 291.264 309.724C291.444 309.508 291.69 309.4 292.002 309.4C292.302 309.4 292.542 309.508 292.722 309.724C292.914 309.94 292.992 310.204 292.956 310.516L292.56 317.59C292.536 317.974 292.35 318.166 292.002 318.166ZM291.912 322C291.612 322 291.378 321.916 291.21 321.748C291.054 321.58 290.976 321.346 290.976 321.046V320.722C290.976 320.41 291.054 320.176 291.21 320.02C291.378 319.852 291.612 319.768 291.912 319.768H292.092C292.404 319.768 292.638 319.852 292.794 320.02C292.95 320.176 293.028 320.41 293.028 320.722V321.046C293.028 321.346 292.95 321.58 292.794 321.748C292.638 321.916 292.404 322 292.092 322H291.912Z" fill="#414141"/>
</g>
<defs>
<filter id="filter0_d_184_4695" x="0" y="0" width="378" height="486" filterUnits="userSpaceOnUse" color-interpolation-filters="sRGB">
<feFlood flood-opacity="0" result="BackgroundImageFix"/>
<feColorMatrix in="SourceAlpha" type="matrix" values="0 0 0 0 0 0 0 0 0 0 0 0 0 0 0 0 0 0 127 0" result="hardAlpha"/>
<feOffset dy="2"/>
<feGaussianBlur stdDeviation="4"/>
<feComposite in2="hardAlpha" operator="out"/>
<feColorMatrix type="matrix" values="0 0 0 0 1 0 0 0 0 0.505882 0 0 0 0 0.2 0 0 0 0.25 0"/>
<feBlend mode="normal" in2="BackgroundImageFix" result="effect1_dropShadow_184_4695"/>
<feBlend mode="normal" in="SourceGraphic" in2="effect1_dropShadow_184_4695" result="shape"/>
</filter>
</defs>
</svg>
