<svg width="24" height="24" viewBox="0 0 24 24" fill="none" xmlns="http://www.w3.org/2000/svg">
<path fill-rule="evenodd" clip-rule="evenodd" d="M6.71181 3.9713C10.2303 3.6567 13.7699 3.6567 17.2885 3.9713L18.8058 4.10697C20.3182 4.24219 21.5401 5.39757 21.7598 6.89999C22.2543 10.2823 22.2543 13.7186 21.7598 17.1009C21.5401 18.6033 20.3182 19.7587 18.8058 19.8939L17.2885 20.0296C13.7699 20.3442 10.2303 20.3442 6.71181 20.0296L5.19447 19.8939C3.6821 19.7587 2.46015 18.6033 2.2405 17.1009C1.74601 13.7186 1.74601 10.2823 2.2405 6.89999C2.46015 5.39757 3.6821 4.24219 5.19447 4.10697L6.71181 3.9713ZM5.8557 6.8401C5.62327 6.71495 5.34216 6.72121 5.11553 6.85657C4.8889 6.99194 4.75012 7.23648 4.75012 7.50046V17.0005C4.75012 17.4147 5.08591 17.7505 5.50012 17.7505C5.91434 17.7505 6.25012 17.4147 6.25012 17.0005V8.75612L11.6445 11.6608C11.8665 11.7803 12.1337 11.7803 12.3557 11.6608L17.7501 8.75612V17.0005C17.7501 17.4147 18.0859 17.7505 18.5001 17.7505C18.9143 17.7505 19.2501 17.4147 19.2501 17.0005V7.50046C19.2501 7.23648 19.1113 6.99194 18.8847 6.85657C18.6581 6.72121 18.377 6.71495 18.1445 6.8401L12.0001 10.1486L5.8557 6.8401Z" fill="#FF8133"/>
</svg>
