<svg width="20" height="101" viewBox="0 0 20 101" fill="none" xmlns="http://www.w3.org/2000/svg">
<path d="M10 -0.00308972C10.9151 -0.00308972 11.7968 0.115954 12.645 0.354041C13.4932 0.592129 14.2893 0.926939 15.0333 1.35847C15.7773 1.79001 16.4544 2.31454 17.0645 2.93208C17.6746 3.54962 18.1954 4.22296 18.6269 4.9521C19.0585 5.68125 19.397 6.47735 19.6425 7.34042C19.8881 8.20349 20.0071 9.08887 19.9997 9.99658C19.9997 10.9117 19.8806 11.7934 19.6425 12.6416C19.4045 13.4898 19.0696 14.2859 18.6381 15.0299C18.2066 15.7739 17.682 16.451 17.0645 17.0611C16.447 17.6712 15.7736 18.192 15.0445 18.6235C14.3153 19.0551 13.5192 19.3936 12.6562 19.6391C11.7931 19.8846 10.9077 20.0037 10 19.9963C9.08485 19.9963 8.20318 19.8772 7.355 19.6391C6.50681 19.401 5.71071 19.0662 4.96668 18.6347C4.22266 18.2032 3.5456 17.6786 2.9355 17.0611C2.3254 16.4435 1.80458 15.7702 1.37305 15.0411C0.941518 14.3119 0.602987 13.5158 0.357459 12.6527C0.111932 11.7897 -0.00711199 10.9043 0.000328246 9.99658C0.000328246 9.08143 0.119372 8.19977 0.357459 7.35158C0.595547 6.50339 0.930357 5.70729 1.36189 4.96326C1.79342 4.21924 2.31796 3.54218 2.9355 2.93208C3.55304 2.32198 4.22638 1.80117 4.95552 1.36963C5.68467 0.9381 6.48077 0.599569 7.34384 0.354041C8.2069 0.108514 9.09229 -0.01053 10 -0.00308972ZM10 18.5677C10.7887 18.5677 11.5476 18.4673 12.2767 18.2664C13.0059 18.0655 13.6866 17.7753 14.3191 17.3959C14.9515 17.0164 15.5318 16.57 16.0601 16.0567C16.5883 15.5433 17.0347 14.9667 17.3993 14.3268C17.7639 13.6869 18.0503 13.0024 18.2587 12.2733C18.467 11.5442 18.5711 10.7852 18.5711 9.99658C18.5711 9.20792 18.4707 8.44901 18.2698 7.71987C18.0689 6.99073 17.7788 6.30995 17.3993 5.67753C17.0199 5.04511 16.5734 4.46477 16.0601 3.93651C15.5467 3.40826 14.9701 2.96184 14.3302 2.59727C13.6904 2.2327 13.0059 1.94625 12.2767 1.73792C11.5476 1.5296 10.7887 1.42543 10 1.42543C9.21134 1.42543 8.45243 1.52588 7.72329 1.72676C6.99415 1.92765 6.31336 2.21782 5.68095 2.59727C5.04853 2.97672 4.46819 3.42314 3.93993 3.93651C3.41167 4.44989 2.96526 5.02651 2.60069 5.66637C2.23612 6.30623 1.94967 6.99073 1.74134 7.71987C1.53302 8.44901 1.42885 9.20792 1.42885 9.99658C1.42885 10.7852 1.5293 11.5442 1.73018 12.2733C1.93107 13.0024 2.22124 13.6832 2.60069 14.3156C2.98014 14.9481 3.42656 15.5284 3.93993 16.0567C4.45331 16.5849 5.02992 17.0313 5.66979 17.3959C6.30964 17.7605 6.99415 18.0469 7.72329 18.2552C8.45243 18.4636 9.21134 18.5677 10 18.5677ZM10 5.71101C10.5878 5.71101 11.1421 5.82261 11.6629 6.04582C12.1837 6.26903 12.6376 6.5778 13.0245 6.97213C13.4113 7.36646 13.7164 7.82031 13.9396 8.33369C14.1628 8.84707 14.2781 9.40136 14.2856 9.99658C14.2856 10.5844 14.174 11.1387 13.9508 11.6595C13.7276 12.1803 13.4188 12.6341 13.0245 13.021C12.6301 13.4079 12.1763 13.713 11.6629 13.9362C11.1495 14.1594 10.5952 14.2747 10 14.2822C9.41222 14.2822 8.85792 14.1706 8.33711 13.9473C7.81629 13.7241 7.36244 13.4154 6.97555 13.021C6.58865 12.6267 6.2836 12.1728 6.0604 11.6595C5.83719 11.1461 5.72187 10.5918 5.71443 9.99658C5.71443 9.4088 5.82603 8.85451 6.04924 8.33369C6.27244 7.81287 6.58121 7.35902 6.97555 6.97213C7.36988 6.58524 7.82373 6.28019 8.33711 6.05698C8.85048 5.83377 9.40478 5.71845 10 5.71101Z" fill="#FF8133"/>
<line x1="10.5" y1="21.4966" x2="10.5" y2="28.4966" stroke="#FFD8C0" stroke-linecap="round"/>
<line x1="10.5" y1="32.4966" x2="10.5" y2="39.4966" stroke="#FFD8C0" stroke-linecap="round"/>
<line x1="10.5" y1="43.4966" x2="10.5" y2="50.4966" stroke="#FFD8C0" stroke-linecap="round"/>
<line x1="10.5" y1="54.4966" x2="10.5" y2="61.4966" stroke="#FFD8C0" stroke-linecap="round"/>
<line x1="10.5" y1="65.4966" x2="10.5" y2="72.4966" stroke="#FFD8C0" stroke-linecap="round"/>
<line x1="10.5" y1="76.4966" x2="10.5" y2="83.4966" stroke="#FFD8C0" stroke-linecap="round"/>
<path d="M10 101C8.73694 99.9227 7.56619 98.7416 6.5 97.4691C4.9 95.5581 3 92.7121 3 90.0001C2.99931 88.6151 3.40951 87.2609 4.17869 86.1091C4.94788 84.9573 6.04147 84.0596 7.32107 83.5295C8.60067 82.9994 10.0087 82.8609 11.3671 83.1314C12.7255 83.4019 13.9731 84.0693 14.952 85.0491C15.6038 85.698 16.1203 86.4696 16.4719 87.3195C16.8234 88.1693 17.0029 89.0804 17 90.0001C17 92.7121 15.1 95.5581 13.5 97.4691C12.4338 98.7416 11.2631 99.9227 10 101ZM10 87.0001C9.20435 87.0001 8.44129 87.3162 7.87868 87.8788C7.31607 88.4414 7 89.2044 7 90.0001C7 90.7957 7.31607 91.5588 7.87868 92.1214C8.44129 92.684 9.20435 93.0001 10 93.0001C10.7957 93.0001 11.5587 92.684 12.1213 92.1214C12.6839 91.5588 13 90.7957 13 90.0001C13 89.2044 12.6839 88.4414 12.1213 87.8788C11.5587 87.3162 10.7957 87.0001 10 87.0001Z" fill="#FF8133"/>
</svg>
