<svg width="26" height="26" viewBox="0 0 26 26" fill="none" xmlns="http://www.w3.org/2000/svg">
<circle cx="13" cy="13" r="13" fill="#F7F7F9"/>
<circle cx="13" cy="13" r="12.5" stroke="black" stroke-opacity="0.06"/>
<path d="M16.0699 10.384C16.2977 10.3848 16.5158 10.4779 16.6763 10.6426C16.8367 10.8072 16.9264 11.0301 16.9255 11.2622L16.9071 16.1703L17.4669 15.6037C17.547 15.5227 17.6419 15.4586 17.7463 15.415C17.8507 15.3714 17.9625 15.3492 18.0754 15.3496C18.1882 15.35 18.2998 15.3731 18.4039 15.4175C18.5079 15.4618 18.6024 15.5267 18.6819 15.6082C18.7614 15.6898 18.8243 15.7865 18.8671 15.8929C18.9098 15.9993 18.9316 16.1132 18.9312 16.2281C18.9308 16.343 18.9081 16.4568 18.8645 16.5628C18.821 16.6688 18.7573 16.7651 18.6772 16.8461L16.6449 18.9005C16.4832 19.064 16.2645 19.1553 16.0368 19.1544C15.809 19.1536 15.591 19.0606 15.4305 18.896L13.4137 16.8263C13.3342 16.7447 13.2713 16.648 13.2285 16.5417C13.1857 16.4353 13.1639 16.3214 13.1644 16.2065C13.1648 16.0915 13.1874 15.9778 13.231 15.8718C13.2746 15.7657 13.3382 15.6695 13.4183 15.5885C13.4984 15.5075 13.5933 15.4434 13.6977 15.3998C13.8021 15.3562 13.9139 15.334 14.0268 15.3344C14.1396 15.3348 14.2512 15.3579 14.3553 15.4023C14.4593 15.4467 14.5538 15.5115 14.6333 15.5931L15.1894 16.1639L15.2078 11.2558C15.2087 11.0237 15.3 10.8015 15.4617 10.638C15.6234 10.4745 15.8422 10.3831 16.0699 10.384ZM11.5317 8.26928L13.5485 10.3389C13.628 10.4205 13.6909 10.5173 13.7337 10.6236C13.7765 10.73 13.7982 10.8439 13.7978 10.9588C13.7974 11.0737 13.7747 11.1875 13.7312 11.2935C13.6876 11.3995 13.6239 11.4958 13.5439 11.5768C13.4638 11.6578 13.3688 11.7219 13.2644 11.7655C13.16 11.8091 13.0482 11.8313 12.9354 11.8309C12.8226 11.8304 12.711 11.8074 12.6069 11.763C12.5028 11.7186 12.4084 11.6538 12.3289 11.5722L11.7733 11.0014L11.7549 15.9095C11.7541 16.1416 11.6627 16.3638 11.501 16.5273C11.3394 16.6908 11.1206 16.7821 10.8928 16.7813C10.665 16.7804 10.4469 16.6874 10.2865 16.5227C10.126 16.358 10.0364 16.1351 10.0372 15.9031L10.0556 10.9949L9.49526 11.5616C9.41518 11.6426 9.32023 11.7067 9.21583 11.7503C9.11143 11.7939 8.99963 11.8161 8.88681 11.8157C8.77399 11.8152 8.66236 11.7922 8.55829 11.7478C8.45422 11.7034 8.35975 11.6386 8.28028 11.557C8.20081 11.4754 8.13789 11.3787 8.09511 11.2724C8.05233 11.166 8.03054 11.0521 8.03097 10.9372C8.0314 10.8222 8.05405 10.7085 8.09762 10.6025C8.1412 10.4964 8.20484 10.4002 8.28492 10.3192L10.3172 8.26473C10.4789 8.1013 10.6977 8.00996 10.9254 8.01082C11.1531 8.01167 11.3712 8.10464 11.5317 8.26928Z" fill="#FF8133"/>
</svg>
